<?xml version="1.0" encoding="utf-8"?>
<!-- Generator: Adobe Illustrator 19.2.0, SVG Export Plug-In . SVG Version: 6.00 Build 0)  -->
<svg version="1.1" id="Layer_1" xmlns="http://www.w3.org/2000/svg" xmlns:xlink="http://www.w3.org/1999/xlink" x="0px" y="0px"
	 viewBox="0 0 253.6 260" style="enable-background:new 0 0 253.6 260;" xml:space="preserve">
<style type="text/css">
	.st0{fill:#E9B118;}
	.st1{fill:#323637;}
	.st2{fill:none;stroke:#E9B118;stroke-width:1.7539;stroke-linecap:round;stroke-linejoin:round;stroke-miterlimit:10;}
</style>
<g>
	<g>
		<g>
			<g>
				<g>
					<g>
						<g>
							<polygon class="st0" points="200,176.7 199.9,176.8 177.5,192.4 174.7,194.4 150.7,211.2 128.8,226.6 126.7,225.1
								57.7,176.8 57.7,176.7 57.7,176.7 85.4,157.3 99.4,147.4 103.5,144.5 128.8,126.8 172,157.1 173.6,158.2 199.9,176.7
								"/>
							<path class="st0" d="M128.8,126.8l43.2,30.3l1.5,1.1l26.3,18.5h0.1l-0.1,0.1l-22.4,15.7l-2.8,2l-24,16.8l-21.9,15.3l-2.1-1.5
								l-69-48.3l-0.1-0.1h0.1l27.7-19.4l14-9.8l4.1-2.9L128.8,126.8 M128.8,123.4c-0.7,0-1.4,0.2-2,0.6l-25.3,17.7l-4.1,2.9
								l-14,9.8l-27.6,19.4l0,0c-0.9,0.6-1.5,1.7-1.5,2.8s0.5,2.2,1.5,2.8l0.1,0.1l69,48.3l2.1,1.5c0.6,0.4,1.3,0.6,2,0.6
								c0.7,0,1.4-0.2,2-0.6l21.9-15.3l24-16.8l2.8-2l22.3-15.6c1-0.6,1.7-1.7,1.6-2.9c0-1.2-0.6-2.3-1.7-2.9l-26.2-18.4l-1.5-1.1
								L130.8,124C130.2,123.6,129.5,123.4,128.8,123.4L128.8,123.4z"/>
						</g>
					</g>
				</g>
				<g>
					<g>
						<g>
							<path class="st1" d="M107.9,226.7c-16.1-9-23.9-33.7-17.6-59.6c7.2-29.4,29.8-49.1,50.5-44c0,0,0,0,0.1,0
								c2,9.1,3.5,30-15.9,53.7C107.2,198.4,106.2,216.3,107.9,226.7L107.9,226.7z"/>
							<path class="st0" d="M109.1,228.4l-1.7-0.9c-16.7-9.3-24.3-34.8-18-60.6c6.4-26.4,25.3-45.5,44.8-45.5c2.3,0,4.6,0.3,6.8,0.8
								l0.6,0.2l0.1,0.5c1.8,8.3,3.9,30.1-16.1,54.4c-17.2,21-18.7,38.3-16.9,49.2L109.1,228.4z M134.2,123.2
								c-18.7,0-36.8,18.6-43,44.1c-5.9,24.1,0.6,47.9,15.5,57.6c-1.4-11.3,0.9-28.4,17.5-48.7c19-23.2,17.6-44,15.8-52.3
								C138.2,123.4,136.2,123.2,134.2,123.2z"/>
						</g>
						<g>
							<path class="st1" d="M145.4,149.6c-2.3,9.5-7.2,20.4-16.5,31.7c-18.9,23.1-17.3,41-15.1,48.8c0.2,0,0.3,0.1,0.4,0.1
								c20.7,5,43.4-14.7,50.5-44c6.4-26.1-1.6-51.1-18.1-59.8C147.5,132.2,147.7,140.2,145.4,149.6L145.4,149.6z"/>
							<path class="st0" d="M120.9,232L120.9,232c-2.3,0-4.6-0.3-6.8-0.8c-0.2-0.1-0.3-0.1-0.4-0.1l-0.5-0.1l-0.1-0.5
								c-2.4-8.7-3.7-26.6,15.2-49.7c8.2-10,13.7-20.6,16.3-31.4c1.9-7.8,2.3-15.4,1.2-22.9l-0.3-1.8l1.6,0.8
								c17.1,9.1,24.9,34.7,18.6,60.9C159.3,212.9,140.4,232,120.9,232z M114.6,229.5c2,0.5,4.1,0.7,6.3,0.7l0,0
								c18.7,0,36.8-18.6,43-44.1c6-24.5-0.8-48.5-16.1-57.9c0.8,7.1,0.3,14.4-1.5,21.7c-2.7,11.1-8.3,21.9-16.7,32.1
								C111.6,203.9,112.4,221,114.6,229.5z"/>
						</g>
					</g>
					<g>
						<g>
							<path class="st1" d="M156,203.7c-2.9-6.7,0.2-14.5,6.9-17.4c6.7-2.9,14.5,0.2,17.4,6.8c2.9,6.7-0.2,14.5-6.8,17.4
								C166.7,213.5,158.9,210.4,156,203.7z"/>
							<path class="st0" d="M168.1,212.7c-5.7,0-10.8-3.4-13.1-8.6c-1.5-3.5-1.6-7.4-0.2-10.9c1.4-3.5,4.1-6.3,7.6-7.8
								c1.8-0.8,3.7-1.2,5.7-1.2c5.7,0,10.8,3.4,13.1,8.6c3.1,7.2-0.2,15.6-7.4,18.8C172,212.3,170.1,212.7,168.1,212.7z
								 M168.1,186.3c-1.7,0-3.3,0.3-4.8,1c-3,1.3-5.3,3.7-6.5,6.7s-1.1,6.3,0.2,9.3c1.9,4.4,6.3,7.3,11.1,7.3c1.7,0,3.3-0.3,4.8-1
								c6.1-2.7,9-9.8,6.3-16C177.3,189.2,172.9,186.3,168.1,186.3z"/>
						</g>
						<g>
							<path class="st1" d="M175.1,186.8c-0.2,0-0.4,0-0.6,0c-0.3-0.1-0.7-0.2-1-0.4c-0.9-0.5-2-1.2-2.9-1.5
								c-1.8-0.5-4.1,0.6-5.8-0.4c-1.9-1.1-2.2-4.1-3.1-5.9c-1-2.3-2.7-3.4-4.8-4.5l0,0c-2-1.1-3.8-2.5-5.3-4.1
								c-0.8-0.8-2-1.7-1.1-2.9c0.7-0.9,2.5-1,3.5-0.9c1.8,0.2,3.6,0.6,5.1,1.2c7.8,3.1,12.8,11.2,15.5,19.2"/>
							<path class="st0" d="M174.9,187.9c-0.2,0-0.4,0-0.6-0.1c-0.3-0.1-0.8-0.2-1.3-0.5c-0.3-0.2-0.7-0.4-1-0.6
								c-0.6-0.3-1.2-0.7-1.7-0.9c-0.6-0.2-1.3-0.1-2.2,0c-1.2,0.1-2.6,0.2-3.9-0.5c-1.7-1-2.3-3-2.9-4.7c-0.2-0.6-0.4-1.2-0.6-1.6
								c-0.8-1.9-2.1-2.8-4.3-4l-0.1-0.1c-2-1.1-3.9-2.6-5.6-4.3c-0.1-0.1-0.2-0.2-0.3-0.3c-0.7-0.7-2.3-2.2-0.9-4
								c1.1-1.4,3.5-1.4,4.4-1.3c1.9,0.2,3.7,0.6,5.4,1.3c9.5,3.8,14.2,14.1,16.1,19.8l-0.5,0.2l0.2,1.4
								C175.1,187.9,175,187.9,174.9,187.9z M169.3,183.7c0.5,0,1,0,1.5,0.2c0.7,0.2,1.3,0.5,1.9,0.9c-2.2-5.5-6.5-13.3-14.1-16.3
								c-1.6-0.6-3.2-1-4.9-1.2c-1.2-0.1-2.3,0.1-2.5,0.4c-0.2,0.3-0.3,0.3,0.6,1.2c0.1,0.1,0.2,0.2,0.3,0.3c1.5,1.6,3.2,2.9,5,3.9
								l0.1,0.1c2.1,1.1,4.1,2.4,5.3,5c0.3,0.6,0.5,1.2,0.7,1.9c0.5,1.4,1,3,1.9,3.5c0.7,0.4,1.6,0.3,2.7,0.2
								C168.3,183.8,168.8,183.7,169.3,183.7z"/>
						</g>
						<g>
							<path class="st1" d="M166.3,211.9c-0.1-0.1-0.3-0.2-0.5-0.3c-0.4-0.2-0.8-0.3-1.4-0.4c-1-0.1-2.1-0.2-2.9-0.5
								c-1.7-0.7-3-2.9-4.9-3.2c-2.1-0.3-4.2,2-6,2.9c-2.1,1.2-4,1.1-6.3,0.8c-0.1,0-0.2,0-0.3,0c-2.2-0.3-4.6-0.3-6.8,0.1
								c-1.2,0.2-2.6,0.1-2.6,1.7c0,1.2,1.4,2.3,2.3,2.8c1.7,1,3.4,1.7,5.1,2.1c8,2,16.8-1.4,23.7-6.1"/>
							<path class="st0" d="M147,219.5c-1.7,0-3.4-0.2-5.2-0.6c-1.9-0.5-3.7-1.2-5.4-2.3c-1-0.6-2.8-2-2.8-3.7c0-2.3,2-2.5,3-2.7
								c0.2,0,0.3,0,0.5-0.1c2.4-0.4,4.8-0.4,7.1-0.1h0.2c2.3,0.3,3.9,0.3,5.7-0.6c0.5-0.2,1-0.6,1.5-1c1.5-1.1,3.2-2.3,5.1-2
								c1.4,0.2,2.5,1.1,3.4,1.9c0.6,0.5,1.2,1.1,1.8,1.3c0.5,0.2,1.2,0.3,2,0.4c0.2,0,0.5,0.1,0.7,0.1c0.6,0.1,1.2,0.2,1.7,0.5
								c0.3,0.1,0.6,0.3,0.8,0.5l-1,1l0.3,0.4C162.3,215.4,154.9,219.5,147,219.5z M141,212c-1.2,0-2.3,0.1-3.5,0.3
								c-0.2,0-0.4,0.1-0.6,0.1c-1.2,0.2-1.2,0.2-1.2,0.5c0,0.5,0.7,1.2,1.8,1.9c1.5,0.9,3.1,1.6,4.8,2c7.8,2,15.8-1.6,20.8-4.7
								c-0.7-0.1-1.4-0.2-2-0.4c-0.9-0.4-1.7-1-2.4-1.7c-0.8-0.7-1.5-1.3-2.2-1.4c-1.1-0.1-2.4,0.8-3.6,1.6
								c-0.6,0.4-1.1,0.8-1.7,1.1c-2.3,1.3-4.4,1.3-7,0.9h-0.3C143,212.1,142,212,141,212z"/>
						</g>
					</g>
					<g>
						<g>
							<path class="st1" d="M95.9,169.3c6.4-3.5,8.7-11.6,5.2-17.9c-3.5-6.4-11.5-8.7-17.9-5.2s-8.7,11.5-5.2,17.9
								C81.5,170.5,89.5,172.9,95.9,169.3z"/>
							<path class="st0" d="M89.6,172L89.6,172c-5.2,0-10-2.8-12.5-7.4c-1.8-3.3-2.3-7.2-1.2-10.8c1.1-3.7,3.5-6.7,6.8-8.5
								c2.1-1.2,4.5-1.8,6.9-1.8c5.2,0,10,2.8,12.5,7.4c3.8,6.9,1.3,15.6-5.6,19.4C94.3,171.4,92,172,89.6,172z M89.6,145.6
								c-2,0-4.1,0.5-5.8,1.5c-2.8,1.6-4.9,4.1-5.8,7.3c-0.9,3.1-0.5,6.4,1,9.2c2.1,3.9,6.2,6.3,10.6,6.3l0,0c2,0,4.1-0.5,5.8-1.5
								c5.9-3.2,8-10.6,4.8-16.5C98.1,148.1,94,145.6,89.6,145.6z"/>
						</g>
						<g>
							<path class="st1" d="M91.2,144.3c0.1,0.1,0.3,0.2,0.5,0.3c0.3,0.2,0.6,0.3,1.1,0.3c1,0.2,2.3,0.3,3.3,0.6
								c1.7,0.7,2.9,3,4.8,3.2c2.1,0.3,4.3-1.9,6-2.8c2.2-1.2,4.2-1,6.6-0.6l0,0c2.2,0.4,4.5,0.3,6.7,0c1.2-0.2,2.6-0.1,2.6-1.6
								c0-1.2-1.4-2.3-2.2-2.8c-1.6-1-3.2-1.7-4.8-2.2c-8.1-2.3-17,1-24,5.7"/>
							<path class="st0" d="M101.2,149.9c-0.2,0-0.4,0-0.6,0c-1.4-0.2-2.4-1.2-3.4-2c-0.6-0.5-1.2-1.1-1.7-1.3
								c-0.5-0.2-1.2-0.3-1.9-0.4c-0.4-0.1-0.8-0.1-1.2-0.2c-0.4-0.1-0.9-0.2-1.3-0.4c-0.3-0.1-0.5-0.3-0.8-0.5l1-1l-0.3-0.4
								c5.1-3.4,15.1-8.6,24.9-5.9c1.8,0.5,3.5,1.3,5.1,2.3c0.8,0.5,2.7,1.9,2.7,3.7c0,2.3-2.1,2.5-3.1,2.6c-0.1,0-0.3,0-0.4,0
								c-2.4,0.4-4.8,0.4-7,0H113c-2.4-0.4-4-0.4-5.7,0.6c-0.4,0.2-0.9,0.6-1.5,0.9C104.5,148.9,102.9,149.9,101.2,149.9z
								 M94.3,144.1c0.7,0.1,1.4,0.2,2,0.5c0.9,0.4,1.7,1.1,2.4,1.7c0.8,0.7,1.5,1.3,2.2,1.5c1.1,0.2,2.5-0.8,3.7-1.6
								c0.6-0.4,1.1-0.8,1.7-1.1c2.6-1.4,4.9-1.1,7.3-0.7h0.2c2,0.3,4.1,0.3,6.2,0c0.2,0,0.3,0,0.5-0.1c1.2-0.1,1.2-0.2,1.2-0.5
								c0-0.5-0.7-1.3-1.7-1.9c-1.4-0.9-3-1.6-4.6-2C107.6,137.6,99.5,141.1,94.3,144.1z"/>
						</g>
						<g>
							<path class="st1" d="M82.8,169.5c0.2,0,0.4,0,0.6,0c0.4,0.1,0.8,0.3,1.3,0.5c0.9,0.5,1.8,1.2,2.6,1.4
								c1.8,0.5,4.1-0.5,5.8,0.5c1.8,1.1,2.2,4.1,3,5.9c1,2.2,2.5,3.3,4.5,4.5c0.1,0,0.2,0.1,0.2,0.1c2,1.1,3.8,2.6,5.3,4.2
								c0.8,0.9,2,1.7,1,2.9c-0.7,0.9-2.5,0.9-3.5,0.8c-1.9-0.2-3.7-0.7-5.4-1.4c-7.6-3.3-12.4-11.4-15-19.3"/>
							<path class="st0" d="M104.6,191.5c-0.4,0-0.7,0-1-0.1c-2-0.2-3.9-0.7-5.7-1.5c-9.2-4-13.7-14.2-15.6-20l0.5-0.2l-0.2-1.4
								c0.4-0.1,0.8,0,1,0.1c0.5,0.1,1.1,0.4,1.6,0.6c0.2,0.1,0.4,0.3,0.6,0.4c0.6,0.4,1.2,0.8,1.8,0.9c0.6,0.2,1.4,0.1,2.2,0.1
								c1.2-0.1,2.6-0.2,3.9,0.5c1.6,1,2.3,3,2.8,4.7c0.2,0.6,0.4,1.2,0.6,1.7c0.8,1.9,2.1,2.9,4.1,4l0.1,0.1c0.1,0,0.1,0.1,0.2,0.1
								c1.9,1.1,3.8,2.6,5.5,4.3c0.1,0.1,0.2,0.2,0.3,0.3c0.7,0.7,2.2,2.2,0.8,4C107.2,191.3,105.8,191.5,104.6,191.5z M85.2,171.6
								c2.1,5.5,6.2,13.2,13.6,16.4c1.6,0.7,3.3,1.2,5.1,1.4c1.2,0.1,2.3,0,2.6-0.4c0.2-0.2,0.2-0.3-0.6-1.2
								c-0.1-0.1-0.3-0.3-0.4-0.4c-1.5-1.6-3.2-3-5-4l-0.3-0.2c-2.3-1.3-3.9-2.6-4.9-5c-0.3-0.6-0.5-1.2-0.7-1.9
								c-0.4-1.4-0.9-3-1.9-3.5c-0.7-0.4-1.6-0.3-2.6-0.3c-1,0.1-2,0.1-2.9-0.1C86.4,172.3,85.8,172,85.2,171.6z"/>
						</g>
					</g>
				</g>
				<g>
					<g>
						<g>
							<path class="st2" d="M141.5,107.7"/>
							<path class="st0" d="M110.9,112c-0.3,0-0.5-0.1-0.7-0.4c-0.3-0.4-0.2-0.9,0.2-1.2L128.2,98c0.3-0.2,0.7-0.2,1,0l12.8,9
								c0.4,0.3,0.5,0.8,0.2,1.2c-0.3,0.4-0.8,0.5-1.2,0.2l-12.4-8.6l-17.2,12.1C111.3,112,111.1,112,110.9,112z"/>
							<path class="st0" d="M39.6,162.9c-0.1,0-0.3,0-0.4-0.1h-0.1c-0.3-0.2-0.5-0.4-0.5-0.8c0-0.3,0.2-0.6,0.5-0.8l49.5-35.5
								L91,124l19.5-13.6c0.4-0.3,0.9-0.2,1.2,0.2c0.3,0.4,0.2,0.9-0.2,1.2l-21.8,15.3l-49.4,35.4C40.1,162.7,39.9,162.9,39.6,162.9
								z"/>
						</g>
					</g>
				</g>
				<g>
					<g>
						<g>
							<path class="st2" d="M116.7,245.3"/>
							<path class="st0" d="M129.6,255.2c-0.2,0-0.4-0.1-0.5-0.2l-12.9-9c-0.4-0.3-0.5-0.8-0.2-1.2s0.8-0.5,1.2-0.2l12.4,8.6
								l17.2-12.1c0.4-0.3,0.9-0.2,1.2,0.2s0.2,0.9-0.2,1.2L130.1,255C129.9,255.1,129.7,255.2,129.6,255.2z"/>
							<path class="st0" d="M147.3,242.8c-0.3,0-0.5-0.1-0.7-0.4c-0.3-0.4-0.2-0.9,0.2-1.2l21.8-15.2l49.4-35.5
								c0.2-0.3,0.7-0.4,1-0.2h0.1c0.3,0.1,0.5,0.4,0.5,0.8c0,0.3-0.2,0.6-0.4,0.8l-49.5,35.5l-2.3,1.6l-19.5,13.6
								C147.7,242.7,147.5,242.8,147.3,242.8z"/>
						</g>
					</g>
				</g>
			</g>
		</g>
	</g>
	<g>
		<g>
			<path class="st0" d="M14.9,53v2H2.8V35.3h2.4V53H14.9z"/>
			<path class="st0" d="M30.2,53v2H17.6V35.3h12.6v2H19.9V44h8.7v2h-8.7v7H30.2z"/>
			<path class="st0" d="M44.1,46h-6.7c-0.5,0-0.9-0.2-1.3-0.6l-0.8-0.6c-0.4-0.3-0.6-0.7-0.6-1.1v-5.8c0-0.6,0.2-1,0.7-1.4l0.7-0.6
				c0.4-0.4,0.9-0.6,1.3-0.6h7.5c0.4,0,0.9,0.2,1.3,0.6l0.7,0.6c0.4,0.4,0.7,0.8,0.7,1.4V39h-2.4v-0.5c0-0.3,0-0.5,0-0.5
				c0-0.1-0.1-0.2-0.3-0.3s-0.3-0.2-0.4-0.2c-0.1,0-0.3,0-0.6,0h-5.4c-0.3,0-0.6,0-0.6,0c-0.1,0-0.2,0.1-0.4,0.2
				c-0.2,0.1-0.3,0.2-0.3,0.3s0,0.3,0,0.5v4.4c0,0.3,0,0.5,0,0.5c0,0.1,0.1,0.2,0.3,0.3s0.3,0.2,0.4,0.2c0.1,0,0.3,0,0.6,0h6.7
				c0.4,0,0.9,0.2,1.3,0.6l0.7,0.6c0.4,0.4,0.7,0.8,0.7,1.4v5.9c0,0.6-0.2,1-0.7,1.4l-0.7,0.6c-0.4,0.4-0.9,0.6-1.3,0.6h-8
				c-0.5,0-0.9-0.2-1.3-0.6l-0.7-0.6c-0.4-0.4-0.7-0.8-0.7-1.4v-1.1h2.4v0.5c0,0.3,0,0.5,0,0.5c0,0.1,0.1,0.2,0.3,0.3
				s0.3,0.2,0.4,0.2c0.1,0,0.3,0,0.6,0h6c0.3,0,0.6,0,0.6,0c0.1,0,0.2-0.1,0.4-0.2c0.2-0.1,0.3-0.2,0.3-0.3s0-0.3,0-0.5v-4.7
				c0-0.3,0-0.5,0-0.5c0-0.1-0.1-0.2-0.3-0.3s-0.3-0.2-0.4-0.2C44.6,46,44.4,46,44.1,46z"/>
			<path class="st0" d="M62,37L62,37c0,0.5,0.1,0.9,0.1,1.4V55h-2.4V35.3h3.8l6,15.7c0.1,0.3,0.2,0.6,0.2,0.8h0.1
				c0-0.2,0.1-0.5,0.2-0.8l6-15.7h3.8V55h-2.4V38.4c0-0.4,0.1-0.9,0.2-1.3h-0.1l-6.9,18h-1.8c-0.9-2.1-1.7-4.2-2.5-6.2
				s-1.4-3.6-1.9-5c-0.5-1.3-0.9-2.5-1.3-3.5s-0.7-1.8-0.9-2.4C62.1,37.4,62,37.1,62,37z"/>
			<path class="st0" d="M98.1,35.3h2.4v17.1c0,0.6-0.2,1-0.7,1.4l-0.7,0.6c-0.4,0.4-0.9,0.6-1.3,0.6h-9.6c-0.4,0-0.9-0.2-1.3-0.6
				l-0.7-0.6c-0.5-0.4-0.7-0.8-0.7-1.4V35.3h2.4v16.5c0,0.3,0,0.5,0,0.5c0,0.1,0.1,0.2,0.3,0.3c0.2,0.1,0.3,0.2,0.4,0.2s0.3,0,0.6,0
				h7.5c0.3,0,0.6,0,0.6,0c0.1,0,0.2-0.1,0.4-0.2c0.2-0.1,0.3-0.2,0.3-0.3s0-0.3,0-0.5L98.1,35.3L98.1,35.3z"/>
			<path class="st0" d="M106.1,35.3h10.4c0.5,0,0.9,0.2,1.3,0.6l0.7,0.6c0.4,0.4,0.7,0.8,0.7,1.4v6.6c0,0.6-0.2,1.1-0.7,1.5
				l-0.7,0.6c-0.4,0.3-0.8,0.5-1.3,0.5h-1.6l2.9,4.5c0.2,0.3,0.3,0.5,0.4,0.6s0.3,0.2,0.6,0.4l0.3,0.2c0.3,0.2,0.5,0.3,0.6,0.4
				c0.1,0.1,0.1,0.4,0.1,0.8v1.1h-0.7c-0.3,0-0.6,0-0.7-0.1c-0.1,0-0.3-0.2-0.6-0.4l-0.5-0.4c-0.4-0.3-0.8-0.6-1-1.1l-3.7-6h-4V55
				h-2.4V35.3H106.1z M108.4,37.3v7.9h7c0.3,0,0.6,0,0.6,0c0.1,0,0.2-0.1,0.4-0.2c0.2-0.1,0.3-0.2,0.3-0.3s0-0.3,0-0.5v-5.6
				c0-0.3,0-0.5,0-0.5c0-0.1-0.1-0.2-0.3-0.3c-0.2-0.1-0.3-0.2-0.4-0.2s-0.3,0-0.6,0h-7V37.3z"/>
			<path class="st0" d="M134,46h-6.7c-0.4,0-0.9-0.2-1.3-0.6l-0.8-0.6c-0.4-0.3-0.6-0.7-0.6-1.1v-5.8c0-0.6,0.2-1,0.7-1.4l0.7-0.6
				c0.4-0.4,0.9-0.6,1.3-0.6h7.5c0.4,0,0.9,0.2,1.3,0.6l0.7,0.6c0.4,0.4,0.7,0.8,0.7,1.4V39h-2.4v-0.5c0-0.3,0-0.5,0-0.5
				c0-0.1-0.1-0.2-0.3-0.3s-0.3-0.2-0.4-0.2c-0.1,0-0.3,0-0.6,0h-5.4c-0.3,0-0.6,0-0.6,0c-0.1,0-0.2,0.1-0.4,0.2
				c-0.2,0.1-0.3,0.2-0.3,0.3s0,0.3,0,0.5v4.4c0,0.3,0,0.5,0,0.5c0,0.1,0.1,0.2,0.3,0.3c0.2,0.1,0.3,0.2,0.4,0.2s0.3,0,0.6,0h6.7
				c0.5,0,0.9,0.2,1.3,0.6l0.7,0.6c0.4,0.4,0.7,0.8,0.7,1.4v5.9c0,0.6-0.2,1-0.7,1.4l-0.7,0.6c-0.4,0.4-0.9,0.6-1.3,0.6h-8
				c-0.4,0-0.9-0.2-1.3-0.6l-0.7-0.6c-0.4-0.4-0.7-0.8-0.7-1.4v-1.1h2.4v0.5c0,0.3,0,0.5,0,0.5c0,0.1,0.1,0.2,0.3,0.3
				c0.2,0.1,0.3,0.2,0.4,0.2s0.3,0,0.6,0h6c0.3,0,0.6,0,0.6,0c0.1,0,0.2-0.1,0.4-0.2c0.2-0.1,0.3-0.2,0.3-0.3s0-0.3,0-0.5v-4.7
				c0-0.3,0-0.5,0-0.5c0-0.1-0.1-0.2-0.3-0.3s-0.3-0.2-0.4-0.2C134.5,46,134.3,46,134,46z"/>
			<path class="st0" d="M149.6,55V35.3H160c0.5,0,0.9,0.2,1.3,0.6l2.7,2.2c0.5,0.4,0.7,0.8,0.7,1.1V51c0,0.4-0.2,0.8-0.7,1.1
				l-2.7,2.2c-0.4,0.4-0.9,0.6-1.3,0.6L149.6,55L149.6,55z M162.4,50.2V40.1c0-0.4-0.2-0.8-0.7-1.1l-1.3-1.1
				c-0.4-0.4-0.9-0.6-1.3-0.6h-7V53h7c0.5,0,0.9-0.2,1.3-0.6l1.3-1.1C162.2,51,162.4,50.6,162.4,50.2z"/>
			<path class="st0" d="M170.7,37.9L170,41l-0.8-0.6v-2.8c-0.2,0-0.3-0.1-0.5-0.2c-0.1-0.1-0.2-0.2-0.2-0.3s0-0.3,0-0.6V36
				c0-0.4,0.1-0.7,0.2-0.9c0.2-0.1,0.5-0.2,0.9-0.2c0.5,0,0.8,0.1,1,0.2c0.1,0.2,0.2,0.4,0.2,0.9v0.5
				C170.9,36.9,170.9,37.4,170.7,37.9z"/>
			<path class="st0" d="M174,55l6.7-19.7h3.3l6.9,19.7h-2.4l-1.5-4.1h-9.4l-1.4,4.1H174z M182.5,37h-0.1c0,0.2-0.1,0.5-0.2,0.8
				l-3.8,11.3h8.2l-3.9-11.3C182.5,37.5,182.5,37.2,182.5,37z"/>
			<path class="st0" d="M209.5,39h-2.4v-0.5c0-0.3,0-0.5,0-0.5c0-0.1-0.1-0.2-0.3-0.3s-0.3-0.2-0.4-0.2c-0.1,0-0.3,0-0.6,0h-6.9
				c-0.3,0-0.6,0-0.6,0c-0.1,0-0.2,0.1-0.4,0.2c-0.2,0.1-0.3,0.2-0.3,0.3s0,0.3,0,0.5v13.4c0,0.3,0,0.5,0,0.5c0,0.1,0.1,0.2,0.3,0.3
				s0.3,0.2,0.4,0.2c0.1,0,0.3,0,0.6,0h6.9c0.3,0,0.6,0,0.6,0c0.1,0,0.2-0.1,0.4-0.2c0.2-0.1,0.3-0.2,0.3-0.3s0-0.3,0-0.5v-5h-4.3
				v-2h6.6v7.6c0,0.6-0.2,1-0.7,1.4l-0.7,0.6c-0.4,0.4-0.9,0.6-1.3,0.6h-9c-0.4,0-0.9-0.2-1.3-0.6l-0.7-0.6
				c-0.5-0.4-0.7-0.8-0.7-1.4V37.9c0-0.6,0.2-1,0.7-1.4l0.7-0.6c0.4-0.4,0.9-0.6,1.3-0.6h9c0.4,0,0.9,0.2,1.3,0.6l0.7,0.6
				c0.5,0.4,0.7,0.8,0.7,1.4L209.5,39L209.5,39z"/>
			<path class="st0" d="M217.2,35.3h10.3c0.5,0,0.9,0.2,1.3,0.6l0.7,0.6c0.4,0.4,0.7,0.8,0.7,1.4v14.6c0,0.6-0.2,1-0.7,1.4l-0.7,0.6
				c-0.4,0.4-0.9,0.6-1.3,0.6h-10.3c-0.4,0-0.9-0.2-1.3-0.6l-0.7-0.6c-0.5-0.4-0.7-0.8-0.7-1.4V37.9c0-0.6,0.2-1,0.7-1.4l0.7-0.6
				C216.3,35.5,216.7,35.3,217.2,35.3z M227.8,51.9V38.5c0-0.3,0-0.5,0-0.5c0-0.1-0.1-0.2-0.3-0.3s-0.3-0.2-0.4-0.2
				c-0.1,0-0.3,0-0.6,0h-8.2c-0.3,0-0.6,0-0.6,0c-0.1,0-0.2,0.1-0.4,0.2c-0.2,0.1-0.3,0.2-0.3,0.3s0,0.3,0,0.5v13.4
				c0,0.3,0,0.5,0,0.5c0,0.1,0.1,0.2,0.3,0.3s0.3,0.2,0.4,0.2c0.1,0,0.3,0,0.6,0h8.2c0.3,0,0.6,0,0.6,0c0.1,0,0.2-0.1,0.4-0.2
				c0.2-0.1,0.3-0.2,0.3-0.3C227.8,52.3,227.8,52.1,227.8,51.9z"/>
			<path class="st0" d="M248.4,51.3L248.4,51.3c0-0.5-0.1-0.9-0.1-1.4V35.3h2.4V55h-2.4L238,39.2h-0.1c0.1,0.4,0.2,0.9,0.2,1.3v14.4
				h-2.4V35.2h2.4L248.4,51.3z"/>
		</g>
		<rect y="64.6" class="st0" width="253.6" height="1.4"/>
	</g>
</g>
</svg>
