<?xml version="1.0" encoding="utf-8"?>
<!-- Generator: Adobe Illustrator 19.2.0, SVG Export Plug-In . SVG Version: 6.00 Build 0)  -->
<svg version="1.1" id="Layer_1" xmlns="http://www.w3.org/2000/svg" xmlns:xlink="http://www.w3.org/1999/xlink" x="0px" y="0px"
	 viewBox="0 0 142.3 110.7" style="enable-background:new 0 0 142.3 110.7;" xml:space="preserve">
<style type="text/css">
	.st0{fill:#E6AE0F;}
	.st1{fill:#323637;}
</style>
<g>
	<g>
		<g>
			<g>
				<g>
					<g>
						<g>
							<polygon class="st0" points="142.3,55.4 142.3,55.4 119.9,71.1 117,73.1 93,89.9 71.1,105.3 69,103.8 0,55.4 0,55.4 0,55.3 
								27.7,35.9 41.7,26.1 45.9,23.2 71.1,5.5 114.4,35.8 115.9,36.8 142.3,55.3 							"/>
						</g>
					</g>
				</g>
				<g>
					<g>
						<g>
							<path class="st1" d="M50.2,105.4c-16.1-9-23.9-33.7-17.6-59.6C39.8,16.4,62.4-3.3,83.1,1.7c0,0,0,0,0.1,0
								c2,9.1,3.5,30-15.9,53.7C49.5,77.1,48.5,95,50.2,105.4L50.2,105.4z"/>
							<path class="st0" d="M51.4,107.1l-1.6-0.9c-16.7-9.3-24.3-34.8-18-60.6C38.1,19.2,57,0,76.5,0c2.3,0,4.6,0.3,6.8,0.8L83.9,1
								L84,1.5c1.8,8.3,3.9,30.1-16.1,54.4c-17.2,21-18.7,38.3-16.9,49.2L51.4,107.1z M76.5,1.8C57.8,1.8,39.7,20.4,33.4,46
								c-5.9,24.2,0.7,48,15.6,57.6c-1.4-11.3,0.9-28.4,17.5-48.8c19.1-23.2,17.6-44,15.8-52.4C80.5,2,78.5,1.8,76.5,1.8z"/>
						</g>
						<g>
							<path class="st1" d="M87.8,28.3c-2.3,9.5-7.2,20.4-16.5,31.7c-19,23.1-17.3,41-15.1,48.8c0.2,0,0.3,0.1,0.4,0.1
								c20.7,5.1,43.4-14.7,50.5-44.1c6.4-26.1-1.6-51.1-18.1-59.9C89.8,10.9,90.1,18.9,87.8,28.3L87.8,28.3z"/>
							<path class="st0" d="M63.2,110.7L63.2,110.7c-2.3,0-4.6-0.3-6.8-0.8c-0.2-0.1-0.3-0.1-0.4-0.1l-0.5-0.1l-0.1-0.5
								c-2.5-8.7-3.7-26.7,15.2-49.7c8.2-10,13.7-20.6,16.3-31.4c1.9-7.8,2.3-15.4,1.2-22.9l-0.3-1.8l1.6,0.8
								c17.1,9.1,24.9,34.7,18.6,60.9C101.6,91.6,82.8,110.7,63.2,110.7z M56.9,108.2c2,0.5,4.1,0.7,6.3,0.7
								c18.7,0,36.8-18.6,43-44.2c6-24.6-0.8-48.5-16.1-58c0.8,7.1,0.3,14.4-1.5,21.7C86,39.6,80.4,50.4,72,60.6
								C53.9,82.6,54.7,99.7,56.9,108.2z"/>
						</g>
					</g>
					<g>
						<g>
							<path class="st1" d="M98.3,82.4c-2.9-6.7,0.2-14.5,6.9-17.4s14.5,0.2,17.4,6.9c2.9,6.7-0.2,14.5-6.9,17.4
								C109,92.2,101.2,89.1,98.3,82.4z"/>
							<path class="st0" d="M110.4,91.4c-5.7,0-10.8-3.4-13.1-8.6c-3.1-7.2,0.2-15.7,7.4-18.8c1.8-0.8,3.7-1.2,5.7-1.2
								c5.7,0,10.8,3.4,13.1,8.6c1.5,3.5,1.6,7.4,0.2,10.9c-1.4,3.5-4.1,6.3-7.6,7.8C114.3,91,112.4,91.4,110.4,91.4z M110.4,65
								c-1.7,0-3.3,0.3-4.8,1c-6.1,2.7-9,9.8-6.3,16c1.9,4.4,6.3,7.3,11.1,7.3c1.7,0,3.3-0.3,4.8-1c3-1.3,5.3-3.7,6.5-6.7
								s1.1-6.3-0.2-9.3C119.6,67.9,115.3,65,110.4,65z"/>
						</g>
						<g>
							<path class="st1" d="M117.4,65.5c-0.2,0-0.4,0-0.6,0c-0.3-0.1-0.7-0.2-1-0.4c-0.9-0.5-2-1.2-3-1.5c-1.8-0.5-4.1,0.6-5.8-0.4
								c-1.9-1.1-2.2-4.1-3.1-5.9c-1-2.3-2.7-3.4-4.8-4.5l0,0c-2-1.1-3.8-2.5-5.3-4.1c-0.8-0.8-2-1.7-1.1-2.9
								c0.7-0.9,2.5-0.9,3.5-0.9c1.8,0.2,3.6,0.6,5.2,1.2c7.8,3.1,12.8,11.2,15.5,19.2"/>
							<path class="st0" d="M117.2,66.6c-0.2,0-0.4,0-0.7-0.1s-0.8-0.2-1.3-0.5c-0.3-0.2-0.7-0.4-1-0.6c-0.6-0.3-1.2-0.7-1.7-0.8
								c-0.6-0.2-1.3-0.1-2.2,0c-1.2,0.1-2.7,0.2-3.9-0.5c-1.7-1-2.3-2.9-2.9-4.7c-0.2-0.6-0.4-1.2-0.6-1.6c-0.8-1.9-2.1-2.8-4.3-4
								l-0.1-0.1c-2-1.1-3.9-2.6-5.6-4.3c-0.1-0.1-0.2-0.2-0.3-0.3c-0.7-0.7-2.3-2.2-0.8-4c1-1.4,3.2-1.4,4.4-1.3
								c1.9,0.2,3.7,0.6,5.4,1.3c9.5,3.8,14.2,14.1,16.1,19.9l-0.5,0.2l0.2,1.4C117.4,66.6,117.3,66.6,117.2,66.6z M111.6,62.4
								c0.5,0,1,0,1.5,0.2c0.7,0.2,1.3,0.5,1.9,0.9c-2.2-5.5-6.5-13.3-14.1-16.3c-1.6-0.6-3.2-1-4.9-1.2c-1.2-0.1-2.3,0.1-2.5,0.4
								s-0.3,0.3,0.6,1.2c0.1,0.1,0.2,0.2,0.3,0.3c1.5,1.6,3.2,2.9,5,3.9l0.1,0.1c2.1,1.1,4.1,2.4,5.3,5c0.3,0.6,0.5,1.2,0.7,1.9
								c0.4,1.4,1,3,1.9,3.5c0.7,0.4,1.6,0.3,2.7,0.2C110.7,62.4,111.2,62.4,111.6,62.4z"/>
						</g>
						<g>
							<path class="st1" d="M108.6,90.6c-0.1-0.1-0.3-0.2-0.5-0.3c-0.4-0.2-0.8-0.3-1.4-0.4c-1-0.1-2.1-0.2-2.9-0.5
								c-1.7-0.7-3-2.9-4.9-3.2c-2.1-0.3-4.2,2-6,2.9c-2.1,1.2-4,1.1-6.3,0.8c-0.1,0-0.2,0-0.3,0c-2.2-0.3-4.6-0.3-6.8,0.1
								c-1.2,0.2-2.6,0.1-2.6,1.7c0,1.2,1.4,2.3,2.3,2.8c1.7,1,3.4,1.7,5.1,2.1c8,2,16.8-1.4,23.7-6.1"/>
							<path class="st0" d="M89.3,98.2c-1.7,0-3.4-0.2-5.2-0.6c-1.9-0.5-3.7-1.2-5.4-2.3c-1-0.6-2.8-2-2.8-3.7c0-2.3,2-2.5,3-2.7
								c0.2,0,0.3,0,0.5-0.1c2.4-0.4,4.8-0.4,7.1-0.1h0.3C89,89,90.7,89,92.4,88c0.5-0.2,1-0.6,1.5-1c1.5-1.1,3.2-2.3,5.1-2
								c1.4,0.2,2.5,1.1,3.4,1.9c0.6,0.5,1.2,1.1,1.8,1.3c0.5,0.2,1.2,0.3,2,0.4c0.2,0,0.5,0.1,0.7,0.1c0.6,0.1,1.2,0.2,1.7,0.5
								c0.1,0.1,0.5,0.2,0.8,0.5l-1,1l0.3,0.4C104.6,94.1,97.3,98.2,89.3,98.2z M83.3,90.7c-1.2,0-2.3,0.1-3.5,0.3
								c-0.2,0-0.4,0.1-0.6,0.1C78,91.3,78,91.3,78,91.6c0,0.4,0.6,1.2,1.8,1.9c1.5,0.9,3.1,1.6,4.8,2c7.8,2,15.8-1.6,20.8-4.7
								c-0.7-0.1-1.4-0.2-2-0.4c-0.9-0.4-1.7-1-2.4-1.7c-0.8-0.7-1.5-1.3-2.2-1.4c-1.1-0.1-2.4,0.8-3.6,1.6
								c-0.6,0.4-1.2,0.8-1.7,1.1c-2.3,1.3-4.3,1.3-7,0.9h-0.3C85.3,90.7,84.3,90.7,83.3,90.7z"/>
						</g>
					</g>
					<g>
						<g>
							<path class="st1" d="M38.2,48c6.4-3.5,8.8-11.5,5.2-17.9c-3.5-6.4-11.5-8.7-17.9-5.2s-8.7,11.6-5.2,17.9
								C23.8,49.2,31.9,51.5,38.2,48z"/>
							<path class="st0" d="M31.9,50.7L31.9,50.7c-5.2,0-10-2.8-12.5-7.4c-1.8-3.3-2.3-7.2-1.2-10.8c1.1-3.7,3.5-6.7,6.8-8.5
								c2.1-1.2,4.5-1.8,6.9-1.8c5.2,0,10,2.8,12.5,7.4c3.8,6.9,1.3,15.6-5.6,19.4C36.7,50.1,34.3,50.7,31.9,50.7z M31.9,24.3
								c-2,0-4.1,0.5-5.8,1.5c-2.8,1.6-4.9,4.1-5.8,7.3c-0.9,3.1-0.5,6.4,1,9.2c2.1,3.9,6.2,6.3,10.6,6.3c2,0,4.1-0.5,5.8-1.5
								c5.9-3.2,8-10.6,4.8-16.5C40.4,26.7,36.3,24.3,31.9,24.3z"/>
						</g>
						<g>
							<path class="st1" d="M33.5,23c0.1,0.1,0.3,0.2,0.5,0.3c0.3,0.2,0.6,0.2,1.1,0.3c1,0.2,2.3,0.3,3.3,0.6c1.7,0.7,2.9,3,4.8,3.2
								c2.1,0.3,4.3-1.9,6-2.8c2.2-1.2,4.2-1,6.6-0.6l0,0c2.2,0.4,4.5,0.3,6.7,0c1.2-0.2,2.6-0.1,2.6-1.6c0-1.2-1.4-2.3-2.2-2.8
								c-1.6-1-3.2-1.7-4.8-2.2c-8.1-2.3-17,1-24,5.7"/>
							<path class="st0" d="M43.5,28.6c-0.2,0-0.4,0-0.6,0c-1.4-0.2-2.4-1.2-3.4-2c-0.6-0.6-1.2-1.1-1.7-1.3s-1.2-0.3-1.9-0.4
								c-0.4-0.1-0.8-0.1-1.2-0.2c-0.4-0.1-0.9-0.2-1.3-0.4c-0.3-0.1-0.6-0.3-0.8-0.5l1-1l-0.3-0.4c5.1-3.4,15.1-8.6,24.9-5.9
								c1.8,0.5,3.5,1.3,5.1,2.3c1,0.6,2.8,2,2.7,3.7c0,2.3-2.1,2.5-3.1,2.6c-0.1,0-0.3,0-0.4,0c-2.4,0.4-4.8,0.4-7,0h-0.2
								c-2.4-0.4-4-0.4-5.8,0.6c-0.4,0.2-1,0.6-1.5,0.9C46.8,27.5,45.2,28.6,43.5,28.6z M36.7,22.8c0.7,0.1,1.4,0.2,2,0.5
								c0.9,0.4,1.7,1.1,2.4,1.7c0.8,0.7,1.5,1.3,2.2,1.5c1.1,0.2,2.5-0.8,3.7-1.6c0.6-0.4,1.1-0.8,1.7-1.1c2.6-1.4,4.9-1.1,7.3-0.7
								h0.2c2,0.3,4.1,0.3,6.2,0c0.2,0,0.3,0,0.5-0.1c1.2-0.1,1.2-0.2,1.2-0.5c0-0.5-0.7-1.3-1.7-1.9c-1.4-0.9-3-1.6-4.6-2
								C49.9,16.3,41.8,19.8,36.7,22.8z"/>
						</g>
						<g>
							<path class="st1" d="M25.1,48.2c0.2,0,0.4,0,0.6,0c0.4,0.1,0.8,0.3,1.3,0.5c0.9,0.5,1.8,1.2,2.6,1.4c1.8,0.5,4.1-0.5,5.8,0.5
								c1.8,1.1,2.2,4.1,3,5.9c1,2.2,2.5,3.3,4.5,4.5c0.1,0,0.2,0.1,0.2,0.1c2,1.1,3.8,2.6,5.3,4.2c0.8,0.9,2,1.7,1,2.9
								c-0.7,0.9-2.5,0.9-3.5,0.8c-1.9-0.2-3.7-0.7-5.4-1.4c-7.6-3.3-12.4-11.4-15-19.3"/>
							<path class="st0" d="M46.9,70.2c-0.4,0-0.7,0-1-0.1c-2-0.2-3.9-0.7-5.7-1.5c-9.2-4-13.7-14.2-15.6-20l0.5-0.2L24.9,47
								c0.4-0.1,0.7,0,1,0.1c0.6,0.1,1.1,0.4,1.6,0.7c0.2,0.1,0.4,0.3,0.6,0.4c0.6,0.4,1.2,0.8,1.8,0.9c0.6,0.2,1.4,0.1,2.2,0.1
								c1.2-0.1,2.6-0.2,3.9,0.5c1.6,1,2.3,3,2.8,4.7c0.2,0.6,0.4,1.2,0.6,1.7c0.8,1.9,2.1,2.9,4.1,4l0.1,0.1c0.1,0,0.1,0.1,0.2,0.1
								c1.9,1.1,3.8,2.6,5.5,4.3c0.1,0.1,0.2,0.2,0.3,0.3c0.7,0.7,2.2,2.2,0.8,4C49.5,70,48.1,70.2,46.9,70.2z M27.5,50.3
								c2,5.5,6.2,13.2,13.5,16.4c1.6,0.7,3.3,1.2,5.1,1.4c1.2,0.1,2.3,0,2.6-0.4c0.2-0.2,0.2-0.3-0.6-1.2c-0.1-0.1-0.3-0.3-0.4-0.4
								c-1.5-1.6-3.2-3-5-4l-0.3-0.2c-2.3-1.3-3.9-2.6-4.9-5c-0.3-0.6-0.5-1.2-0.7-1.9c-0.4-1.4-0.9-3-1.9-3.5
								c-0.7-0.4-1.6-0.3-2.6-0.3c-1,0.1-2,0.1-2.9-0.2C28.7,51,28.1,50.7,27.5,50.3z"/>
						</g>
					</g>
				</g>
			</g>
		</g>
	</g>
</g>
</svg>
